HIERARCHY
ROOT Hips
{
	OFFSET -0.001795 -0.223333 0.028219
	CHANNELS 6 Xposition Yposition Zposition Zrotation Yrotation Xrotation 
	JOINT LeftUpLeg
	{
		OFFSET 0.069520 -0.091406 -0.006815
		CHANNELS 3 Zrotation Yrotation Xrotation
		JOINT LeftLeg
		{
			OFFSET 0.034277 -0.375199 -0.004496
			CHANNELS 3 Zrotation Yrotation Xrotation
			JOINT LeftFoot
			{
				OFFSET -0.013596 -0.397961 -0.043693
				CHANNELS 3 Zrotation Yrotation Xrotation
				JOINT LeftToe
				{
					OFFSET 0.026358 -0.055791 0.119288
					CHANNELS 3 Zrotation Yrotation Xrotation
					End Site
					{
						OFFSET 0.000000 0.000000 0.000000
					}
				}
			}
		}
	}
	JOINT RightUpLeg
	{
		OFFSET -0.067670 -0.090522 -0.004320
		CHANNELS 3 Zrotation Yrotation Xrotation
		JOINT RightLeg
		{
			OFFSET -0.038290 -0.382569 -0.008850
			CHANNELS 3 Zrotation Yrotation Xrotation
			JOINT RightFoot
			{
				OFFSET 0.015774 -0.398415 -0.042312
				CHANNELS 3 Zrotation Yrotation Xrotation
				JOINT RightToe
				{
					OFFSET -0.025372 -0.048144 0.123348
					CHANNELS 3 Zrotation Yrotation Xrotation
					End Site
					{
						OFFSET 0.000000 0.000000 0.000000
					}
				}
			}
		}
	}
	JOINT Spine
	{
		OFFSET -0.002533 0.108963 -0.026696
		CHANNELS 3 Zrotation Yrotation Xrotation
		JOINT Spine1
		{
			OFFSET 0.005487 0.135180 0.001092
			CHANNELS 3 Zrotation Yrotation Xrotation
			JOINT Spine2
			{
				OFFSET 0.001457 0.052922 0.025425
				CHANNELS 3 Zrotation Yrotation Xrotation
				JOINT Neck
				{
					OFFSET -0.002778 0.213870 -0.042857
					CHANNELS 3 Zrotation Yrotation Xrotation
					JOINT Head
					{
						OFFSET 0.005152 0.064970 0.051349
						CHANNELS 3 Zrotation Yrotation Xrotation
						End Site
						{
							OFFSET 0.000000 0.000000 0.000000
						}
					}
				}
				JOINT LeftShoulder
				{
					OFFSET 0.078845 0.121749 -0.034090
					CHANNELS 3 Zrotation Yrotation Xrotation
					JOINT LeftArm
					{
						OFFSET 0.090977 0.030469 -0.008868
						CHANNELS 3 Zrotation Yrotation Xrotation
						JOINT LeftForeArm
						{
							OFFSET 0.259612 -0.012772 -0.027456
							CHANNELS 3 Zrotation Yrotation Xrotation
							JOINT LeftHand
							{
								OFFSET 0.249234 0.008986 -0.001171
								CHANNELS 3 Zrotation Yrotation Xrotation
								End Site
								{
									OFFSET 0.000000 0.000000 0.000000
								}
							}
						}
					}
				}
				JOINT RightShoulder
				{
					OFFSET -0.081759 0.118833 -0.038615
					CHANNELS 3 Zrotation Yrotation Xrotation
					JOINT RightArm
					{
						OFFSET -0.096012 0.032551 -0.009143
						CHANNELS 3 Zrotation Yrotation Xrotation
						JOINT RightForeArm
						{
							OFFSET -0.253742 -0.013329 -0.021401
							CHANNELS 3 Zrotation Yrotation Xrotation
							JOINT RightHand
							{
								OFFSET -0.255298 0.007772 -0.005559
								CHANNELS 3 Zrotation Yrotation Xrotation
								End Site
								{
									OFFSET 0.000000 0.000000 0.000000
								}
							}
						}
					}
				}
			}
		}
	}
}
MOTION
Frames: 14
Frame Time: 0.050000
0.000000 0.755139 0.000000 0.815885 0.063891 -1.748897 20.470961 3.002119 -35.358436 -12.565063 7.646488 67.750848 9.625012 19.218299 -15.069696 0.000000 0.000000 0.000000 -13.155742 -0.316230 -36.658198 15.224897 -10.958825 77.110016 -8.969219 -22.570197 -13.297571 0.000000 0.000000 0.000000 6.008614 -3.932794 40.335891 -4.734775 1.827301 -21.621788 -2.167846 5.546154 22.133839 11.978713 -2.816693 -35.046533 0.000000 0.000000 0.000000 -26.943386 -29.501412 14.685429 -30.035750 -23.651176 0.983255 27.105202 -30.936327 -6.501148 0.000000 0.000000 0.000000 25.988642 23.470681 14.969120 9.986725 50.216951 -0.474000 -41.927232 18.035433 -5.142164 0.000000 0.000000 0.000000 
0.009011 0.777299 0.011252 0.692006 -0.782747 -2.308355 18.977545 2.407667 -31.780361 -13.034466 7.749777 63.196601 9.329480 18.589790 -10.994553 0.000000 0.000000 0.000000 -13.047996 -0.151234 -35.512774 15.982596 -10.888941 75.266817 -9.699739 -24.342193 -8.571659 0.000000 0.000000 0.000000 5.985350 -3.548617 38.016101 -6.000153 2.102873 -23.451479 0.071938 5.492684 23.504497 11.859739 -2.524790 -37.607086 0.000000 0.000000 0.000000 -29.567099 -28.110312 14.543947 -29.282977 -20.327471 0.079526 20.540169 -30.707890 -4.571329 0.000000 0.000000 0.000000 28.307814 21.619752 14.139373 15.243566 48.627903 1.152807 -39.997537 18.183042 -4.834451 0.000000 0.000000 0.000000 
0.018985 0.800644 0.022983 1.090125 0.399895 -3.433045 16.912073 1.366101 -26.074706 -12.424196 6.036212 56.316608 9.717398 19.465625 -11.673177 0.000000 0.000000 0.000000 -12.635485 -0.142268 -28.315332 13.284449 -7.866446 68.053590 -9.080876 -22.722013 -11.721363 0.000000 0.000000 0.000000 5.849979 -3.143404 33.268243 -4.287515 1.732077 -21.738371 -2.384121 4.560618 23.828351 11.668318 -2.586713 -37.099082 0.000000 0.000000 0.000000 -27.741961 -25.150501 12.351110 -33.185363 -21.701519 0.483922 16.761161 -28.197930 -3.175954 0.000000 0.000000 0.000000 31.494581 20.658423 14.152027 17.927917 44.708241 1.526065 -34.113721 23.175644 -5.413353 0.000000 0.000000 0.000000 
0.029273 0.826531 0.033606 1.476296 -0.510585 -4.406591 15.413084 0.874029 -19.822317 -11.998688 5.386239 49.799468 8.763444 17.051296 -11.516990 0.000000 0.000000 0.000000 -11.652044 0.154974 -24.603103 11.283682 -5.275417 63.071883 -9.411813 -23.571132 -10.745712 0.000000 0.000000 0.000000 5.647374 -2.728126 30.809760 -4.741910 1.845888 -21.407052 -2.219767 5.070413 23.838796 11.200448 -2.185194 -37.857651 0.000000 0.000000 0.000000 -25.758007 -23.051160 10.698208 -37.279101 -19.618587 0.097684 14.351270 -30.395059 -2.765787 0.000000 0.000000 0.000000 31.532984 17.132263 11.700404 26.038020 42.580115 3.574343 -32.176573 24.542921 -5.202643 0.000000 0.000000 0.000000 
0.039252 0.851446 0.041889 1.513978 -0.624918 -4.406696 13.700750 0.456555 -15.622347 -11.256336 4.355121 42.552612 8.646787 17.010432 -9.055470 0.000000 0.000000 0.000000 -10.884583 0.267904 -18.600628 9.618416 -3.450061 53.990861 -9.152058 -22.699424 -10.497474 0.000000 0.000000 0.000000 6.201763 -2.528573 27.296524 -5.627872 2.090600 -21.254877 -1.612001 4.636923 24.669659 10.987895 -2.301873 -36.996748 0.000000 0.000000 0.000000 -25.140912 -21.847712 10.116776 -39.972945 -20.038594 0.197108 12.355591 -27.711951 -1.953545 0.000000 0.000000 0.000000 31.502744 14.914546 9.969607 31.365268 39.459762 4.263346 -31.312942 25.749114 -5.194250 0.000000 0.000000 0.000000 
0.047966 0.874494 0.047620 1.653790 -0.957377 -3.021951 11.968231 0.144725 -12.129093 -10.231235 3.329093 34.395912 8.257134 16.379651 -7.017924 0.000000 0.000000 0.000000 -10.800709 0.302417 -15.378740 8.770793 -2.523726 45.925296 -8.857444 -21.764056 -10.183770 0.000000 0.000000 0.000000 6.266586 -2.217668 23.803675 -5.380642 1.995356 -21.504677 -1.932709 5.292632 24.931457 10.449882 -2.154888 -35.665926 0.000000 0.000000 0.000000 -24.659631 -20.214381 8.967341 -42.779778 -18.560280 -0.207067 11.300746 -27.207806 -1.641862 0.000000 0.000000 0.000000 31.538195 12.758922 8.725769 36.293852 35.706030 4.257170 -30.104594 29.509450 -5.610594 0.000000 0.000000 0.000000 
0.055188 0.895699 0.051025 1.566324 -1.528344 -1.927408 10.535962 -0.018904 -9.867364 -8.676926 2.390721 28.182768 7.841167 15.907756 -3.172343 0.000000 0.000000 0.000000 -10.633677 0.344892 -12.606631 7.978944 -1.800215 38.518436 -8.695809 -21.164168 -7.492969 0.000000 0.000000 0.000000 6.472783 -1.969795 20.741330 -5.117714 1.880233 -22.338862 -2.177605 5.666858 25.258931 10.861027 -2.323222 -35.649830 0.000000 0.000000 0.000000 -24.337589 -17.492816 7.333903 -44.961915 -16.478969 -0.950024 9.110110 -27.686512 -1.109938 0.000000 0.000000 0.000000 30.934786 9.590974 6.555679 41.266521 32.132833 4.029907 -28.017681 36.087730 -6.237909 0.000000 0.000000 0.000000 
0.060511 0.911014 0.052392 1.583775 -2.647591 -0.686287 9.688891 -0.082747 -8.830989 -8.036530 2.067300 24.229664 7.960416 16.515786 0.515964 0.000000 0.000000 0.000000 -10.562533 0.404472 -10.904906 7.299615 -1.240119 31.855971 -8.374842 -20.190882 -5.075280 0.000000 0.000000 0.000000 6.390262 -1.737847 18.524064 -5.349399 1.898089 -22.935170 -1.958295 6.466564 25.597972 10.502629 -2.340096 -34.238244 0.000000 0.000000 0.000000 -23.885562 -15.704461 6.257281 -46.521089 -14.929127 -1.575368 7.905181 -27.836487 -0.801159 0.000000 0.000000 0.000000 29.941232 6.579827 4.483909 44.583735 28.442878 3.214255 -25.388210 43.649093 -6.586860 0.000000 0.000000 0.000000 
0.064099 0.921439 0.052826 1.473952 -3.381489 0.075245 9.220536 -0.108511 -7.847130 -7.029721 1.634728 20.927907 7.623957 16.043345 2.939468 0.000000 0.000000 0.000000 -10.248476 0.453261 -9.937522 6.579265 -0.871652 27.337044 -8.063165 -19.452725 -2.383941 0.000000 0.000000 0.000000 6.748013 -1.618589 16.593185 -5.181000 1.836068 -22.782108 -2.518421 6.621395 25.385467 10.545203 -2.580079 -32.942302 0.000000 0.000000 0.000000 -23.965302 -13.447099 5.015467 -47.129281 -12.478909 -2.515925 6.736112 -27.945952 -0.497673 0.000000 0.000000 0.000000 29.635251 4.373832 2.840672 45.830080 24.532636 1.949491 -22.435523 52.080227 -6.674468 0.000000 0.000000 0.000000 
0.066219 0.928687 0.053300 1.300010 -4.344520 0.885764 9.116569 -0.100255 -6.744342 -6.396738 1.375488 17.912518 7.631807 16.201458 5.627796 0.000000 0.000000 0.000000 -10.260612 0.490637 -9.081658 6.526731 -0.776883 23.414645 -7.634062 -18.509005 -0.489121 0.000000 0.000000 0.000000 6.730737 -1.446010 14.726713 -4.949085 1.751586 -22.833333 -2.415286 7.327514 25.575253 10.255528 -2.601581 -31.763227 0.000000 0.000000 0.000000 -23.987713 -11.476820 3.838269 -48.163730 -10.646939 -3.289401 5.927459 -27.492716 -0.278571 0.000000 0.000000 0.000000 29.904064 1.867832 1.170231 46.533085 21.532802 0.819547 -20.934017 58.711973 -6.734420 0.000000 0.000000 0.000000 
0.067101 0.934064 0.053830 1.178182 -4.938400 1.027255 9.054901 -0.078753 -5.228460 -5.987876 1.170657 14.847197 7.940346 16.798192 7.346288 0.000000 0.000000 0.000000 -9.718423 0.498343 -7.381197 5.824290 -0.556915 19.471083 -7.461329 -18.209199 1.058899 0.000000 0.000000 0.000000 6.996018 -1.343088 13.276343 -4.996583 1.751202 -22.956649 -2.548280 7.202308 26.090247 9.806968 -2.520916 -31.339193 0.000000 0.000000 0.000000 -23.693630 -9.355052 2.795216 -49.522729 -8.536088 -4.320121 5.958107 -27.355772 -0.224531 0.000000 0.000000 0.000000 29.639523 -0.032135 -0.334023 48.245620 19.076538 0.025340 -20.859741 63.221662 -7.282105 0.000000 0.000000 0.000000 
0.067288 0.937041 0.054353 0.893287 -5.249147 1.728032 9.505039 -0.059921 -4.525117 -5.751046 1.019022 11.898269 7.979427 16.909798 9.762977 0.000000 0.000000 0.000000 -9.305955 0.509999 -6.475138 5.384991 -0.466124 15.824262 -7.196816 -17.757975 2.392598 0.000000 0.000000 0.000000 7.094821 -1.178564 11.198080 -4.782273 1.689933 -22.594306 -2.577469 7.601231 26.191850 9.395703 -2.356702 -30.755275 0.000000 0.000000 0.000000 -23.490820 -7.708617 1.776778 -50.534617 -7.339487 -4.882644 5.436624 -26.127356 -0.090426 0.000000 0.000000 0.000000 30.575751 -1.661066 -1.449677 49.341825 17.955717 -0.382413 -22.104597 64.243062 -8.038880 0.000000 0.000000 0.000000 
0.067184 0.939145 0.054769 0.878628 -5.787128 2.125683 9.550243 -0.048218 -3.714226 -5.703838 0.958879 9.851895 8.268820 17.372473 10.794409 0.000000 0.000000 0.000000 -9.141951 0.521909 -5.956550 5.099955 -0.408533 13.414834 -7.296019 -18.087670 3.570999 0.000000 0.000000 0.000000 7.158301 -1.092921 10.169319 -4.996859 1.726660 -23.048394 -2.126048 7.862041 26.671758 9.329248 -2.381170 -30.567639 0.000000 0.000000 0.000000 -23.122667 -6.450454 1.128262 -51.638488 -6.292740 -5.489784 5.622128 -25.574365 -0.097584 0.000000 0.000000 0.000000 31.009253 -3.254561 -2.644935 50.730627 17.440000 -0.543168 -23.824682 64.329641 -8.973302 0.000000 0.000000 0.000000 
0.067165 0.940683 0.055191 0.806217 -6.374962 2.410464 9.854386 -0.023745 -2.840795 -5.795261 0.919668 7.532549 8.452617 17.636286 12.281022 0.000000 0.000000 0.000000 -8.948194 0.516691 -4.882521 4.751420 -0.360302 10.413594 -7.052009 -17.698146 4.687074 0.000000 0.000000 0.000000 7.044898 -0.945472 8.679733 -4.838651 1.678285 -22.870634 -2.110533 8.096078 27.023184 8.982523 -2.253839 -30.385429 0.000000 0.000000 0.000000 -23.186016 -5.453666 0.611037 -52.364557 -5.693754 -5.861566 5.243383 -24.978611 0.011976 0.000000 0.000000 0.000000 31.475809 -3.582087 -2.990528 51.723407 17.361945 -0.526807 -25.265911 63.230063 -9.597667 0.000000 0.000000 0.000000 
